<svg xmlns="http://www.w3.org/2000/svg" viewBox="0 0 95 95"><defs><style>.cls-1,.cls-2{fill:none;stroke:#fff;}.cls-1{stroke-miterlimit:10;stroke-width:2px;}.cls-2{stroke-linecap:round;stroke-linejoin:round;}</style></defs><g id="Layer_2" data-name="Layer 2"><g id="Layer_6" data-name="Layer 6"><circle class="cls-1" cx="47.5" cy="47.5" r="46.5"/><path class="cls-2" d="M62.82,45.15a12.41,12.41,0,1,1,6.83,2H55.38"/><circle class="cls-2" cx="69.65" cy="28.58" r="3.1" transform="translate(-3.68 11.53) rotate(-9.22)"/><circle class="cls-2" cx="69.65" cy="40.99" r="3.1"/><circle class="cls-2" cx="75.85" cy="34.79" r="3.1"/><circle class="cls-2" cx="63.44" cy="34.79" r="3.1"/><line class="cls-2" x1="70.27" y1="34.79" x2="69.03" y2="34.79"/><circle class="cls-2" cx="26.17" cy="18.9" r="4.42"/><circle class="cls-2" cx="39.42" cy="16.52" r="6.8"/><polyline class="cls-2" points="42.82 23.99 42.82 33.51 23.11 33.51 23.11 23.99"/><line class="cls-2" x1="32.63" y1="33.51" x2="32.63" y2="39.63"/><polyline class="cls-2" points="28.55 39.63 28.55 38.95 31.95 35.55 32.63 35.55"/><polyline class="cls-2" points="36.71 39.63 36.71 38.95 33.31 35.55 32.63 35.55"/><polyline class="cls-2" points="21.75 30.11 19.71 30.11 19.71 26.71 21.75 26.71"/><polyline class="cls-2" points="44.18 26.03 44.86 26.03 48.94 23.99 49.62 23.99 49.62 32.83 48.94 32.83 44.86 30.79 44.18 30.79"/><line class="cls-2" x1="25.15" y1="26.71" x2="29.91" y2="26.71"/><line class="cls-2" x1="31.27" y1="26.71" x2="32.63" y2="26.71"/><line class="cls-2" x1="49.62" y1="22.63" x2="49.62" y2="23.99"/><line class="cls-2" x1="49.62" y1="32.83" x2="49.62" y2="34.19"/><path class="cls-2" d="M35.47,54.63V47.22a.49.49,0,0,0-.49-.49H13.44a.49.49,0,0,0-.49.49V60.93a.49.49,0,0,0,.49.49H32.86"/><polyline class="cls-2" points="18.82 65.33 19.8 64.35 28.13 64.35 29.11 65.33"/><polyline class="cls-2" points="21.27 63.37 21.27 61.41 26.66 61.41 26.66 63.37"/><line class="cls-2" x1="25" y1="49.25" x2="25" y2="58.89"/><polyline class="cls-2" points="22.24 58.89 22.24 49.94 21.55 49.94 18.11 54.76 18.11 55.45 23.62 55.45"/><polyline class="cls-2" points="25 54.07 26.37 54.07 29.82 49.94 29.82 49.25"/><polyline class="cls-2" points="27.06 53.38 29.82 58.2 29.82 58.89"/><rect class="cls-2" x="32.86" y="54.63" width="27.53" height="17.96" rx="0.6"/><polyline class="cls-2" points="40.04 77.37 41.24 76.17 51.41 76.17 52.61 77.37"/><polyline class="cls-2" points="43.03 74.98 43.03 72.58 49.62 72.58 49.62 74.98"/><path class="cls-2" d="M50.22,60h-3V67.2h3a2.4,2.4,0,0,0,2.39-2.4V62.41A2.4,2.4,0,0,0,50.22,60Z"/><line class="cls-2" x1="44.83" y1="67.8" x2="44.83" y2="59.42"/><line class="cls-2" x1="40.04" y1="59.42" x2="40.04" y2="67.8"/><line class="cls-2" x1="40.04" y1="63.61" x2="44.83" y2="63.61"/></g></g></svg>