<svg xmlns="http://www.w3.org/2000/svg" viewBox="0 0 95 95"><defs><style>.cls-1{fill:none;stroke:#fff;stroke-miterlimit:10;stroke-width:2px;}.cls-2{fill:#fff;}</style></defs><g id="Layer_2" data-name="Layer 2"><g id="Layer_6" data-name="Layer 6"><circle class="cls-1" cx="47.5" cy="47.5" r="46.5"/><path class="cls-2" d="M27.58,68a1.1,1.1,0,1,1-1.09-1.1A1.09,1.09,0,0,1,27.58,68Z"/><path class="cls-2" d="M32.71,71H20.27a3,3,0,0,1-3-3V49.38a3,3,0,0,1,3-3H32.71a3,3,0,0,1,3,3V68A3,3,0,0,1,32.71,71ZM20.27,47.69a1.69,1.69,0,0,0-1.69,1.69V68a1.69,1.69,0,0,0,1.69,1.69H32.71A1.69,1.69,0,0,0,34.4,68V49.38a1.69,1.69,0,0,0-1.69-1.69Z"/><path class="cls-2" d="M31.64,66.14H21.34a1.23,1.23,0,0,1-1.23-1.23V50.34a1.23,1.23,0,0,1,1.23-1.22h10.3a1.22,1.22,0,0,1,1.22,1.22V64.91A1.23,1.23,0,0,1,31.64,66.14ZM21.4,64.86H31.58V50.4H21.4Z"/><path class="cls-2" d="M15,51.9H9.08a4.76,4.76,0,0,1-.69-9.47c0-.17,0-.35,0-.52a6.72,6.72,0,0,1,13.39-.78,5.11,5.11,0,0,1,.78-.05,5.39,5.39,0,0,1,5.12,3.67.63.63,0,0,1-.4.81.65.65,0,0,1-.81-.4,4.12,4.12,0,0,0-3.91-2.8,4.39,4.39,0,0,0-1.19.17.65.65,0,0,1-.57-.1.64.64,0,0,1-.26-.51v0a5.44,5.44,0,0,0-10.87,0,5.63,5.63,0,0,0,.09,1,.61.61,0,0,1-.14.53.6.6,0,0,1-.5.23h0a3.48,3.48,0,0,0,0,7H15a.64.64,0,0,1,0,1.28Z"/><path class="cls-2" d="M60.69,37H48.38a4.41,4.41,0,0,1-.68-8.76c0-.14,0-.28,0-.42A6.2,6.2,0,0,1,60,27a4.87,4.87,0,0,1,.66,0,5,5,0,0,1,0,10ZM48.37,29.46a3.13,3.13,0,0,0,0,6.25H60.69a3.72,3.72,0,0,0,0-7.44,3.56,3.56,0,0,0-1.07.16.64.64,0,0,1-.57-.1.65.65,0,0,1-.26-.52,4.92,4.92,0,1,0-9.83,0,4.58,4.58,0,0,0,.09.9.65.65,0,0,1-.14.52.63.63,0,0,1-.49.24Z"/><path class="cls-2" d="M54.59,45.43a15.53,15.53,0,0,1-15.5-14.78A.64.64,0,0,1,39.7,30a.64.64,0,0,1,.67.61,14.26,14.26,0,0,0,14.4,13.56h0a.64.64,0,0,1,0,1.28Z"/><path class="cls-2" d="M58.86,44.81a.64.64,0,0,1-.19-1.25A14.25,14.25,0,0,0,64,19.2a.64.64,0,1,1,.85-1A15.53,15.53,0,0,1,59,44.79.55.55,0,0,1,58.86,44.81Z"/><path class="cls-2" d="M40.23,26.65a.47.47,0,0,1-.17,0,.63.63,0,0,1-.45-.79,15.25,15.25,0,0,1,2.4-5A15.5,15.5,0,0,1,61.44,16a.64.64,0,1,1-.57,1.15,14.27,14.27,0,0,0-20,9.08A.63.63,0,0,1,40.23,26.65Z"/><path class="cls-2" d="M64.72,23.54a.65.65,0,0,1-.64-.59l-.36-4.3A.68.68,0,0,1,64,18.1a.64.64,0,0,1,.58-.12L68.7,19.1a.64.64,0,0,1-.33,1.24l-3.29-.89.28,3.39a.63.63,0,0,1-.59.69Z"/><path class="cls-2" d="M51.24,47.64a.64.64,0,0,1-.33-1.19l2.9-1.77-2.65-2.13a.64.64,0,1,1,.8-1l3.37,2.7a.65.65,0,0,1,.24.54.66.66,0,0,1-.31.51l-3.68,2.25A.69.69,0,0,1,51.24,47.64Z"/><path class="cls-2" d="M40.22,26.77a.57.57,0,0,1-.22,0,.61.61,0,0,1-.4-.44l-1.11-4.17a.64.64,0,0,1,1.24-.33l.87,3.29,2.8-1.94a.64.64,0,0,1,.73,1.06l-3.54,2.46A.7.7,0,0,1,40.22,26.77Z"/><path class="cls-2" d="M66.51,80H49.76a5.77,5.77,0,0,1-.68-11.49,6.79,6.79,0,0,1,0-.78,8.2,8.2,0,0,1,16.37-.79,6.71,6.71,0,0,1,1.1-.09,6.58,6.58,0,1,1,0,13.15ZM49.75,69.75a4.48,4.48,0,0,0,0,9H66.51a5.3,5.3,0,0,0,0-10.59,5.53,5.53,0,0,0-1.52.22.64.64,0,0,1-.57-.09.68.68,0,0,1-.26-.52v0a6.92,6.92,0,0,0-13.84,0A6.83,6.83,0,0,0,50.44,69a.63.63,0,0,1-.15.54.67.67,0,0,1-.51.22Z"/><path class="cls-2" d="M67.11,63.48H67a.65.65,0,0,1-.5-.76,3.9,3.9,0,0,0-1.07-3.6A3.94,3.94,0,0,0,61.82,58a.64.64,0,0,1-.27-1.26A5.23,5.23,0,0,1,67.74,63,.64.64,0,0,1,67.11,63.48Z"/><path class="cls-2" d="M71.2,62.38a.64.64,0,0,1-.64-.63A7.87,7.87,0,0,0,62.77,54a.65.65,0,0,1,0-1.29,9.17,9.17,0,0,1,9.05,9.06.64.64,0,0,1-.63.64Z"/><path class="cls-2" d="M59,70.18a2.06,2.06,0,1,1,0-2.92A2.06,2.06,0,0,1,59,70.18Z"/><path class="cls-2" d="M57.53,75.35a.64.64,0,0,1-.64-.64V68.29a.64.64,0,0,1,.64-.64.64.64,0,0,1,.64.64v6.42A.64.64,0,0,1,57.53,75.35Z"/><path class="cls-2" d="M62.12,75.79H52.93a.64.64,0,1,1,0-1.28h9.19a.64.64,0,1,1,0,1.28Z"/></g></g></svg>