<svg xmlns="http://www.w3.org/2000/svg" viewBox="0 0 95 95"><defs><style>.cls-1,.cls-2{fill:none;stroke:#fff;}.cls-1{stroke-miterlimit:10;stroke-width:2px;}.cls-2{stroke-linecap:round;stroke-linejoin:round;}.cls-3{fill:#fff;}</style></defs><g id="Layer_2" data-name="Layer 2"><g id="Layer_6" data-name="Layer 6"><circle class="cls-1" cx="47.5" cy="47.5" r="46.5"/><path class="cls-2" d="M66.64,33.8V15.57l-15.25,3.9v15.2a4.8,4.8,0,0,0-2.8-.87c-2.37,0-4.29,1.61-4.29,3.58S46.22,41,48.59,41s4.3-1.6,4.3-3.58V24.68L65.14,22v9.1a4.8,4.8,0,0,0-2.8-.87c-2.37,0-4.29,1.61-4.29,3.58s1.92,3.58,4.29,3.58S66.64,35.78,66.64,33.8Z"/><path class="cls-2" d="M76.62,30.35a10.9,10.9,0,0,1-3.16-5.07H72v15.2a4.8,4.8,0,0,0-2.8-.87c-2.37,0-4.3,1.6-4.3,3.58s1.93,3.58,4.3,3.58,4.29-1.6,4.29-3.58V31.09c4.52,2.38,4.31,4.74,2.08,7.9C79.68,37,79.14,32.65,76.62,30.35Z"/><rect class="cls-2" x="18.37" y="26.42" width="13.49" height="22.44" rx="6.75"/><path class="cls-2" d="M18.37,37.57H15.58V42c0,4.53,2.79,9.83,9.54,9.83s9.53-5.3,9.53-9.83V37.57H31.86"/><line class="cls-2" x1="18.37" y1="42.11" x2="31.86" y2="42.11"/><line class="cls-2" x1="25.12" y1="51.81" x2="25.12" y2="59.68"/><line class="cls-2" x1="21.18" y1="59.68" x2="29.05" y2="59.68"/><line class="cls-2" x1="21.42" y1="32.81" x2="28.81" y2="32.81"/><line class="cls-2" x1="21.42" y1="35.61" x2="28.81" y2="35.61"/><line class="cls-2" x1="21.42" y1="38.4" x2="28.81" y2="38.4"/><path class="cls-2" d="M45.12,60.48A3.09,3.09,0,0,0,48.3,57.3V55.71a3.19,3.19,0,1,0-6.37,0V57.3A3.09,3.09,0,0,0,45.12,60.48Z"/><path class="cls-2" d="M49.1,84.37V66.06h4.78c2.4,0,3.18-1.42,3.18-3.19H43.53c-3.79,0-5.58,1.21-5.58,4.78v4.78a3.25,3.25,0,0,0,3.19,3.18"/><line class="cls-2" x1="45.12" y1="74.02" x2="45.12" y2="84.37"/><line class="cls-2" x1="41.14" y1="67.65" x2="41.14" y2="84.37"/><polyline class="cls-2" points="52.28 60.48 52.28 56.5 74.58 56.5 74.58 75.61 52.28 75.61 52.28 68.45"/><polygon class="cls-3" points="61.04 61.9 61.04 69.86 67.62 65.88 61.04 61.9"/></g></g></svg>