<svg xmlns="http://www.w3.org/2000/svg" xmlns:xlink="http://www.w3.org/1999/xlink" viewBox="0 0 1121.77 622.48"><defs><style>.cls-1{fill:none;}.cls-2{fill:url(#linear-gradient);}.cls-3{opacity:0.2;}.cls-4{clip-path:url(#clip-path);}.cls-5{opacity:0.82;}.cls-6{fill:url(#linear-gradient-2);}.cls-7{fill:url(#linear-gradient-3);}.cls-8{fill:url(#linear-gradient-4);}.cls-9{opacity:0.8;}.cls-10{fill:url(#linear-gradient-5);}.cls-11{fill:url(#linear-gradient-6);}.cls-12{fill:url(#linear-gradient-7);}</style><linearGradient id="linear-gradient" x1="-1931.4" y1="4739.56" x2="-971.19" y2="4739.56" gradientTransform="translate(1931.44 -4581.68)" gradientUnits="userSpaceOnUse"><stop offset="0" stop-color="#b92648"/><stop offset="0.54" stop-color="#e71c24"/><stop offset="1" stop-color="#ff7500"/></linearGradient><clipPath id="clip-path" transform="translate(57.77 151.26)"><rect class="cls-1" y="0.09" width="960.21" height="315.77"/></clipPath><linearGradient id="linear-gradient-2" x1="1843.87" y1="50.68" x2="1522.81" y2="449.71" gradientTransform="translate(-817.67 -70.46)" gradientUnits="userSpaceOnUse"><stop offset="0" stop-color="#ff7500"/><stop offset="1" stop-color="#f0f"/></linearGradient><linearGradient id="linear-gradient-3" x1="1546.22" y1="446.25" x2="1309.32" y2="-111.05" gradientTransform="translate(-817.67 -70.46)" gradientUnits="userSpaceOnUse"><stop offset="0" stop-color="#0012a4"/><stop offset="1" stop-color="#f0f"/></linearGradient><linearGradient id="linear-gradient-4" x1="1600.01" y1="440" x2="1483.51" y2="148.73" gradientTransform="translate(-817.67 -70.46)" gradientUnits="userSpaceOnUse"><stop offset="0" stop-color="#840086"/><stop offset="0.39" stop-color="#b90076"/><stop offset="1" stop-color="#ff7500"/></linearGradient><linearGradient id="linear-gradient-5" x1="1344.35" y1="-33.57" x2="1019.8" y2="369.8" xlink:href="#linear-gradient-2"/><linearGradient id="linear-gradient-6" x1="1043.46" y1="366.3" x2="803.98" y2="-197.07" xlink:href="#linear-gradient-3"/><linearGradient id="linear-gradient-7" x1="1097.84" y1="359.98" x2="980.07" y2="65.54" xlink:href="#linear-gradient-4"/></defs><g id="Layer_2" data-name="Layer 2"><g id="Layer_1-2" data-name="Layer 1"><rect class="cls-2" x="0.05" width="960.21" height="315.77" transform="translate(1018.07 467.02) rotate(-180)"/><g class="cls-3"><g class="cls-4"><g class="cls-5"><path class="cls-6" d="M1057.1-66.49s36.33,303.66-57.75,425.88S766.91,501.9,672,428.84s-110.4-211.78-16.32-334S1057.1-66.49,1057.1-66.49Z" transform="translate(57.77 151.26)"/><path class="cls-7" d="M457.45-26.24S732.8-4.73,826.67,108.17s76.78,241.17-10.88,314.06S603.09,485,509.22,372.12,457.45-26.24,457.45-26.24Z" transform="translate(57.77 151.26)"/><path class="cls-8" d="M655.69,94.84c-94.08,122.22-78.58,261,16.32,334a203.36,203.36,0,0,0,65.78,33.87c27.83-7.18,54.29-20.76,78-40.48,87.66-72.89,104.75-201.17,10.88-314.06C802.08,78.59,765,55.34,723.7,37.05,696.22,53.84,672.51,73,655.69,94.84Z" transform="translate(57.77 151.26)"/></g><g class="cls-9"><path class="cls-10" d="M557.92-151.26s36.73,307-58.38,430.52-235,144.06-330.9,70.21S57,135.38,152.14,11.83,557.92-151.26,557.92-151.26Z" transform="translate(57.77 151.26)"/><path class="cls-11" d="M-48.26-110.57S230.09-88.82,325,25.31s77.62,243.8-11,317.48S99,406.26,4.08,292.13-48.26-110.57-48.26-110.57Z" transform="translate(57.77 151.26)"/><path class="cls-12" d="M152.14,11.83C57,135.38,72.71,275.62,168.64,349.47a205.79,205.79,0,0,0,66.5,34.24c28.12-7.26,54.87-21,78.85-40.92C402.6,269.11,419.87,139.43,325,25.3,300.12-4.6,262.63-28.1,220.89-46.59,193.11-29.62,169.14-10.26,152.14,11.83Z" transform="translate(57.77 151.26)"/></g></g></g></g></g></svg>