<svg id="Layer_1" data-name="Layer 1" xmlns="http://www.w3.org/2000/svg" xmlns:xlink="http://www.w3.org/1999/xlink" viewBox="0 0 960 316"><defs><style>.cls-1{fill:none;}.cls-2{fill:url(#linear-gradient);}.cls-3{opacity:0.2;}.cls-4{clip-path:url(#clip-path);}.cls-5{opacity:0.82;}.cls-6{fill:url(#linear-gradient-2);}.cls-7{fill:url(#linear-gradient-3);}.cls-8{fill:url(#linear-gradient-4);}.cls-9{opacity:0.8;}.cls-10{fill:url(#linear-gradient-5);}.cls-11{fill:url(#linear-gradient-6);}.cls-12{fill:url(#linear-gradient-7);}</style><linearGradient id="linear-gradient" x1="-1931.3" y1="4739.28" x2="-971.09" y2="4739.28" gradientTransform="translate(1931.44 -4581.68)" gradientUnits="userSpaceOnUse"><stop offset="0" stop-color="#b92648"/><stop offset="0.54" stop-color="#e71c24"/><stop offset="1" stop-color="#ff7500"/></linearGradient><clipPath id="clip-path"><rect class="cls-1" x="0.1" y="-0.2" width="960.21" height="315.77"/></clipPath><linearGradient id="linear-gradient-2" x1="1843.96" y1="50.4" x2="1522.91" y2="449.43" gradientTransform="translate(-817.67 -70.46)" gradientUnits="userSpaceOnUse"><stop offset="0" stop-color="#ff7500"/><stop offset="1" stop-color="#f0f"/></linearGradient><linearGradient id="linear-gradient-3" x1="1546.32" y1="445.97" x2="1309.42" y2="-111.33" gradientTransform="translate(-817.67 -70.46)" gradientUnits="userSpaceOnUse"><stop offset="0" stop-color="#0012a4"/><stop offset="1" stop-color="#f0f"/></linearGradient><linearGradient id="linear-gradient-4" x1="1600.11" y1="439.72" x2="1483.6" y2="148.44" gradientTransform="translate(-817.67 -70.46)" gradientUnits="userSpaceOnUse"><stop offset="0" stop-color="#840086"/><stop offset="0.39" stop-color="#b90076"/><stop offset="1" stop-color="#ff7500"/></linearGradient><linearGradient id="linear-gradient-5" x1="1344.45" y1="-33.86" x2="1019.89" y2="369.52" xlink:href="#linear-gradient-2"/><linearGradient id="linear-gradient-6" x1="1043.56" y1="366.02" x2="804.08" y2="-197.35" xlink:href="#linear-gradient-3"/><linearGradient id="linear-gradient-7" x1="1097.94" y1="359.7" x2="980.16" y2="65.25" xlink:href="#linear-gradient-4"/></defs><rect class="cls-2" x="0.14" y="-0.28" width="960.21" height="315.77" transform="translate(960.5 315.2) rotate(-180)"/><g class="cls-3"><g class="cls-4"><g class="cls-5"><path class="cls-6" d="M1057.19-66.78s36.34,303.67-57.74,425.88S767,501.61,672.11,428.56s-110.41-211.79-16.32-334S1057.19-66.78,1057.19-66.78Z"/><path class="cls-7" d="M457.55-26.52S732.9-5,826.77,107.88,903.55,349.06,815.89,422s-212.7,62.78-306.57-50.11S457.55-26.52,457.55-26.52Z"/><path class="cls-8" d="M655.79,94.55c-94.09,122.22-78.58,261,16.32,334a203.75,203.75,0,0,0,65.78,33.87c27.83-7.18,54.29-20.77,78-40.48,87.66-72.89,104.75-201.17,10.88-314.07-24.59-29.57-61.68-52.83-103-71.12C696.32,53.55,672.61,72.7,655.79,94.55Z"/></g><g class="cls-9"><path class="cls-10" d="M558-151.54s36.74,307-58.37,430.52-235,144.06-330.9,70.21S57.13,135.09,152.24,11.54,558-151.54,558-151.54Z"/><path class="cls-11" d="M-48.16-110.85S230.19-89.1,325.08,25s77.62,243.8-11,317.48S99.07,406,4.18,291.85-48.16-110.85-48.16-110.85Z"/><path class="cls-12" d="M152.24,11.55c-95.11,123.54-79.43,263.79,16.5,337.64a206,206,0,0,0,66.49,34.24c28.13-7.26,54.88-21,78.85-40.93C402.7,268.82,420,139.14,325.08,25,300.22-4.88,262.72-28.39,221-46.87,193.21-29.9,169.24-10.54,152.24,11.55Z"/></g></g></g></svg>